<svg id="Capa_1" enable-background="new 0 0 512.192 512.192" height="512" viewBox="0 0 512.192 512.192" width="512" xmlns="http://www.w3.org/2000/svg"><g id="Outline_41_" fill="#233d91"><path d="m439.756 143.321c-5.337-11.199-18.792-15.969-29.991-10.632l-34.012 16.209-77.178-62.489c26.608-34.942 1.701-85.844-42.579-85.844-46.198 0-70.318 54.624-40.103 88.855l-105.792 186.079-97.272 46.357c-11.224 5.349-15.983 18.764-10.631 29.991l70.037 146.962c5.346 11.219 18.812 15.96 29.991 10.632 409.995-198.007 402.568-185.331 408.463-201.961 5.501-15.513-1.129-12.481-70.933-164.159zm-183.761-127.756c21.229 0 38.5 17.271 38.5 38.5s-17.271 38.5-38.5 38.5-38.5-17.271-38.5-38.5 17.272-38.5 38.5-38.5zm-28.478 83.757c18.653 11.78 42.602 10.877 60.328-2.3l72.902 59.027-226.98 108.171zm265.191 207.411c-415.148 196.951-401.882 196.228-406.932 185.623-70.576-149.894-76.706-152.09-66.494-156.959 416.327-198.119 402.168-195.628 406.933-185.623l70.037 146.962c1.784 3.741.199 8.213-3.544 9.997z"/><path d="m246.517 314.297c-10.798-22.653-38.013-32.301-60.665-21.506-22.653 10.797-32.301 38.011-21.505 60.665 6.732 10.931 9.929 32.948 34.644 41.709 38.122 13.518 73.617-26.121 56.292-62.476zm-42.515 66.731c-17.36-6.153-18.902-21.777-26.114-34.024-9.697-20.348 5.312-43.637 27.495-43.637 26.686 0 30.857 27.888 36.358 35.776 7.238 15.188-12.339 50.886-37.739 41.885z"/><path d="m294.701 347.704-38.245-80.251-13.541 6.453 44.699 93.792 77.772-37.064-6.453-13.541z"/><path d="m427.084 217.544c-8.506-17.848-29.943-25.448-47.789-16.941l-47.245 22.516 47.925 100.563 47.245-22.516c17.846-8.505 25.446-29.942 16.941-47.789zm-6.317 70.081-33.704 16.062-35.019-73.48 33.704-16.062c10.377-4.946 22.849-.527 27.795 9.854l17.077 35.832c4.947 10.379.527 22.847-9.853 27.794z"/><path d="m123.695 371.923-25.117 11.971c-7.391 3.521-16.269.375-19.79-7.016s-.375-16.269 7.015-19.79l48.456-23.092-6.453-13.541-48.456 23.092c-23.852 11.367-22.125 46.217 2.868 55.075 17.619 6.247 28.476-5.541 47.931-13.158 9.137-4.352 20.109-.462 24.463 8.672 4.354 9.135.463 20.109-8.672 24.463l-45.291 21.584 6.453 13.541 45.291-21.584c16.602-7.912 23.671-27.855 15.76-44.457-7.913-16.6-27.857-23.671-44.458-15.76z"/><path d="m255.995 77.565c12.958 0 23.5-10.542 23.5-23.5s-10.542-23.5-23.5-23.5-23.5 10.542-23.5 23.5 10.542 23.5 23.5 23.5zm8.5-23.5c0 11.25-17 11.235-17 0 0-4.687 17-11.235 17 0z"/></g></svg>